name GIL08_xslow2.mot
datacolumns 153
datarows 4
range 1.01666665 1.04166675
endheader

                time	           pelvis_tx	           pelvis_ty	           pelvis_tz	         pelvis_tilt	         pelvis_list	     pelvis_rotation	       hip_flexion_r	     hip_adduction_r	      hip_rotation_r	        knee_angle_r	       ankle_angle_r	    subtalar_angle_r	         mtp_angle_r	       hip_flexion_l	     hip_adduction_l	      hip_rotation_l	        knee_angle_l	       ankle_angle_l	    subtalar_angle_l	         mtp_angle_l	    lumbar_extension	      lumbar_bending	     lumbar_rotation	     ground_force_vx	     ground_force_vy	     ground_force_vz	     ground_force_px	     ground_force_py	     ground_force_pz	     ground_force_vx	     ground_force_vy	     ground_force_vz	     ground_force_px	     ground_force_py	     ground_force_pz	     ground_torque_x	     ground_torque_y	     ground_torque_z	     ground_torque_x	     ground_torque_y	     ground_torque_z	    ground_marker_px	    ground_marker_py	    ground_marker_pz	    ground_marker_px	    ground_marker_py	    ground_marker_pz	    ground_marker_px	    ground_marker_py	    ground_marker_pz	    ground_marker_px	    ground_marker_py	    ground_marker_pz	    ground_marker_px	    ground_marker_py	    ground_marker_pz	    ground_marker_px	    ground_marker_py	    ground_marker_pz	    ground_marker_px	    ground_marker_py	    ground_marker_pz	    ground_marker_px	    ground_marker_py	    ground_marker_pz	    ground_marker_px	    ground_marker_py	    ground_marker_pz	    ground_marker_px	    ground_marker_py	    ground_marker_pz	    ground_marker_px	    ground_marker_py	    ground_marker_pz	    ground_marker_px	    ground_marker_py	    ground_marker_pz	    ground_marker_px	    ground_marker_py	    ground_marker_pz	    ground_marker_px	    ground_marker_py	    ground_marker_pz	    ground_marker_px	    ground_marker_py	    ground_marker_pz	    ground_marker_px	    ground_marker_py	    ground_marker_pz	    ground_marker_px	    ground_marker_py	    ground_marker_pz	    ground_marker_px	    ground_marker_py	    ground_marker_pz	    ground_marker_px	    ground_marker_py	    ground_marker_pz	    ground_marker_px	    ground_marker_py	    ground_marker_pz	    ground_marker_px	    ground_marker_py	    ground_marker_pz	    ground_marker_px	    ground_marker_py	    ground_marker_pz	    ground_marker_px	    ground_marker_py	    ground_marker_pz	    ground_marker_px	    ground_marker_py	    ground_marker_pz	    ground_marker_px	    ground_marker_py	    ground_marker_pz	    ground_marker_px	    ground_marker_py	    ground_marker_pz	    ground_marker_px	    ground_marker_py	    ground_marker_pz	    ground_marker_px	    ground_marker_py	    ground_marker_pz	    ground_marker_px	    ground_marker_py	    ground_marker_pz	    ground_marker_px	    ground_marker_py	    ground_marker_pz	    ground_marker_px	    ground_marker_py	    ground_marker_pz	    ground_marker_px	    ground_marker_py	    ground_marker_pz	    ground_marker_px	    ground_marker_py	    ground_marker_pz	    ground_marker_px	    ground_marker_py	    ground_marker_pz	    ground_marker_px	    ground_marker_py	    ground_marker_pz	    ground_marker_px	    ground_marker_py	    ground_marker_pz	    ground_marker_px	    ground_marker_py	    ground_marker_pz	
          1.01666665	         -0.40320051	          0.97966605	          0.26758689	          4.91826820	         -3.88977695	          7.54317760	         10.20753098	          1.95349824	          1.92435718	        -11.09972572	         -4.40328312	          0.00000000	          0.00000000	        -13.36125565	         -5.81529760	          8.22715664	        -22.37305260	         10.45983028	          0.00000000	          0.00000000	        -25.56892014	          5.49338341	         -1.63667512	        -31.07480831	        337.60168766	         -7.35783985	         -0.32937390	          0.00000000	          0.32693152	         33.47059008	        251.81865887	         -6.40854638	         -0.65721014	          0.00000000	          0.23398227	          0.00000000	         -0.29110760	          0.00000000	          0.00000000	         -0.66166187	          0.00000000	         -0.47208267	          0.90209794	          0.28537548	         -0.47312006	          0.88565928	          0.33606136	         -0.48788670	          0.88027185	          0.23065703	         -0.36968562	          0.48966169	          0.32770199	         -0.55445850	          0.46868175	          0.21828966	         -0.34485468	          0.07154609	          0.32097864	         -0.77599394	          0.10823935	          0.22758009	         -0.40320051	          0.97966605	          0.26758689	         -0.38871452	          0.98495114	          0.37098813	         -0.41768652	          0.97438097	          0.16418563	         -0.59784079	          1.00712490	          0.33064157	         -0.60662377	          1.00444055	          0.24511869	         -0.35901782	          0.49121287	          0.38621733	         -0.55336344	          0.47029153	          0.15882152	         -0.38895419	          0.50009710	          0.26750025	         -0.56189930	          0.47449371	          0.27237126	         -0.34839171	          0.07072778	          0.35880482	         -0.77995765	          0.10966318	          0.18830526	         -0.34699130	          0.07752945	          0.28914049	         -0.76680273	          0.12012059	          0.25608405	         -0.52297896	          1.46277666	          0.28563252	         -0.42424053	          1.38393223	          0.35937035	         -0.43646729	          1.38845360	          0.20410958	         -0.44284597	          1.38835454	          0.27881074	         -0.41827303	          1.18538141	          0.26419607	         -0.34914687	          0.59266561	          0.46896309	         -0.38450056	          0.57298452	          0.19949506	         -0.34584591	          0.65824890	          0.39966252	         -0.45278409	          0.64418983	          0.16528805	         -0.33442381	          0.57940596	          0.37230101	         -0.48015529	          0.55856276	          0.17148034	         -0.33902165	          0.14695688	          0.42730469	         -0.63293266	          0.15757154	          0.22639643	         -0.36149034	          0.20336315	          0.36709478	         -0.66429198	          0.23358110	          0.21527255	         -0.22226216	          0.04462054	          0.30704683	         -0.67072606	          0.04294428	          0.23635401	
          1.02499998	         -0.39719769	          0.98062730	          0.26802194	          4.94497585	         -3.85644674	          7.70731258	          9.74825478	          1.92738867	          1.38281202	        -11.06028080	         -4.10040283	          0.00000000	          0.00000000	        -12.96023846	         -5.95990324	          7.49309731	        -23.57639503	          9.40550995	          0.00000000	          0.00000000	        -25.53209686	          5.58394194	         -1.67060673	        -30.95598369	        357.67187167	         -8.31525086	         -0.32848425	          0.00000000	          0.32703220	         30.13506903	        223.31954962	         -7.09489570	         -0.65684814	          0.00000000	          0.23352718	          0.00000000	         -0.33329016	          0.00000000	          0.00000000	         -0.59017236	          0.00000000	         -0.46883398	          0.90008360	          0.28554815	         -0.46690214	          0.88653785	          0.33660209	         -0.48195869	          0.88124418	          0.23123400	         -0.36652458	          0.48988354	          0.32826519	         -0.54576468	          0.46910658	          0.21723534	         -0.34456432	          0.07148748	          0.32117915	         -0.77228218	          0.11135501	          0.22700571	         -0.39719769	          0.98062730	          0.26802194	         -0.38242307	          0.98582178	          0.37141705	         -0.41197231	          0.97543281	          0.16462681	         -0.59180272	          1.00806189	          0.33147588	         -0.60132587	          1.00536537	          0.24616906	         -0.35624960	          0.49125230	          0.38685530	         -0.54559761	          0.47110057	          0.15776899	         -0.38494396	          0.50070232	          0.26796910	         -0.54407763	          0.47015566	          0.26896867	         -0.34822458	          0.07065494	          0.35899329	         -0.77706242	          0.11331221	          0.18784490	         -0.34685165	          0.07751861	          0.28937328	         -0.76279980	          0.12344545	          0.25537485	         -0.51746666	          1.46362531	          0.28709066	         -0.41862091	          1.38474917	          0.36035064	         -0.43110377	          1.38961148	          0.20523447	         -0.43736100	          1.38933873	          0.27988929	         -0.41265598	          1.18641877	          0.26477030	         -0.34617305	          0.59254730	          0.46986148	         -0.37611887	          0.57397676	          0.19633788	         -0.34140512	          0.65824360	          0.40071148	         -0.44417116	          0.64511722	          0.16386838	         -0.33060735	          0.57930326	          0.37340650	         -0.46651945	          0.56070203	          0.16891275	         -0.33853734	          0.14674914	          0.42762631	         -0.62887162	          0.15901236	          0.22333507	         -0.36062372	          0.20332576	          0.36749575	         -0.65912968	          0.23566090	          0.21392529	         -0.22202341	          0.04437524	          0.30705795	         -0.66964674	          0.04301942	          0.23610899	
          1.03333330	         -0.39135864	          0.98150033	          0.26840138	          4.95792913	         -3.78473783	          7.85242414	          9.30769348	          1.85281551	          0.94060802	        -11.01196480	         -3.81320858	          0.00000000	          0.00000000	        -12.50372982	         -6.06168270	          6.70427895	        -24.81627846	          8.20776653	          0.00000000	          0.00000000	        -25.51238251	          5.63949823	         -1.71632338	        -30.73524349	        377.62641574	         -8.90643915	         -0.32772839	          0.00000000	          0.32710361	         26.48886990	        194.88222257	         -7.50544927	         -0.65654150	          0.00000000	          0.23297514	          0.00000000	         -0.38674860	          0.00000000	          0.00000000	         -0.51599066	          0.00000000	         -0.46537727	          0.89839721	          0.28563398	         -0.46089622	          0.88730043	          0.33699930	         -0.47620049	          0.88216943	          0.23165888	         -0.36348230	          0.49004418	          0.32881457	         -0.53687805	          0.46956500	          0.21598686	         -0.34426790	          0.07145202	          0.32134625	         -0.76824200	          0.11452414	          0.22628835	         -0.39135864	          0.98150033	          0.26840138	         -0.37634736	          0.98653305	          0.37172502	         -0.40636992	          0.97646761	          0.16507772	         -0.58578843	          1.00888455	          0.33230916	         -0.59603393	          1.00626600	          0.24722874	         -0.35353899	          0.49127409	          0.38746497	         -0.53768581	          0.47194177	          0.15653984	         -0.38108197	          0.50129986	          0.26834086	         -0.53424823	          0.46987176	          0.26804471	         -0.34806147	          0.07060346	          0.35914692	         -0.77387899	          0.11706554	          0.18727534	         -0.34667951	          0.07757575	          0.28953499	         -0.75843745	          0.12684418	          0.25452167	         -0.51196831	          1.46450877	          0.28841445	         -0.41305995	          1.38554347	          0.36126006	         -0.42572898	          1.39074051	          0.20634708	         -0.43189749	          1.39030302	          0.28092113	         -0.40714857	          1.18742490	          0.26531968	         -0.34317791	          0.59243691	          0.47069287	         -0.36779517	          0.57497704	          0.19287507	         -0.33716354	          0.65823936	          0.40168265	         -0.43719730	          0.64610469	          0.16198023	         -0.32690099	          0.57921499	          0.37435681	         -0.45914045	          0.56113058	          0.16701785	         -0.33810076	          0.14653163	          0.42789879	         -0.62458193	          0.16050184	          0.21998005	         -0.35972026	          0.20336084	          0.36787021	         -0.65347660	          0.23793459	          0.21223859	         -0.22180574	          0.04416520	          0.30705816	         -0.66853702	          0.04307710	          0.23581053	
          1.04166675	         -0.38573641	          0.98227322	          0.26876500	          4.95574284	         -3.69997501	          8.02405739	          8.90022087	          1.75443172	          0.53742188	        -10.97219658	         -3.52902365	          0.00000000	          0.00000000	        -12.00028610	         -6.16614294	          5.92379999	        -26.05370140	          6.86789227	          0.00000000	          0.00000000	        -25.47184563	          5.64526510	         -1.76418555	        -30.56925080	        396.95191720	         -9.27373395	         -0.32702777	          0.00000000	          0.32713068	         22.47553125	        166.87448781	         -7.56812238	         -0.65622076	          0.00000000	          0.23242894	          0.00000000	         -0.44541931	          0.00000000	          0.00000000	         -0.44510229	          0.00000000	         -0.45811221	          0.90107262	          0.28535640	         -0.45510489	          0.88796365	          0.33738342	         -0.47070369	          0.88302952	          0.23207679	         -0.36052603	          0.49017471	          0.32934114	         -0.52804959	          0.46999291	          0.21455602	         -0.34399220	          0.07143098	          0.32147649	         -0.76395571	          0.11769351	          0.22543089	         -0.38573641	          0.98227322	          0.26876500	         -0.37044501	          0.98711002	          0.37199622	         -0.40102780	          0.97743636	          0.16553377	         -0.57984698	          1.00959718	          0.33313844	         -0.59060657	          1.00710893	          0.24825583	         -0.35085559	          0.49128723	          0.38803950	         -0.52985615	          0.47276381	          0.15514804	         -0.37783194	          0.50178629	          0.26872727	         -0.52415794	          0.46913472	          0.26625285	         -0.34790641	          0.07056672	          0.35926449	         -0.77046812	          0.12085570	          0.18659998	         -0.34654459	          0.07762773	          0.28966436	         -0.75376397	          0.13019378	          0.25351024	         -0.50646740	          1.46532559	          0.28973931	         -0.40742096	          1.38631690	          0.36220211	         -0.42039254	          1.39177275	          0.20744285	         -0.42641658	          1.39120483	          0.28196883	         -0.40160218	          1.18836606	          0.26596534	         -0.34016624	          0.59234470	          0.47144541	         -0.35962796	          0.57596946	          0.18919881	         -0.33341870	          0.65815485	          0.40260565	         -0.43017244	          0.64697421	          0.15991277	         -0.32356724	          0.57908219	          0.37513191	         -0.45143607	          0.56159776	          0.16469297	         -0.33766374	          0.14631188	          0.42812258	         -0.62005168	          0.16202499	          0.21638741	         -0.35881653	          0.20341773	          0.36822453	         -0.64778799	          0.24011038	          0.21018927	         -0.22160833	          0.04398319	          0.30704227	         -0.66741586	          0.04310428	          0.23546317	
